<svg width="403" height="252" viewBox="0 0 403 252" fill="none" xmlns="http://www.w3.org/2000/svg">
<path d="M401.528 197.756H1.33282C1.05424 197.756 0.78709 197.643 0.590105 197.443C0.39312 197.242 0.28244 196.971 0.28244 196.687C0.28244 196.404 0.39312 196.132 0.590105 195.932C0.78709 195.731 1.05424 195.619 1.33282 195.619H401.528C401.807 195.619 402.074 195.731 402.271 195.932C402.468 196.132 402.579 196.404 402.579 196.687C402.579 196.971 402.468 197.242 402.271 197.443C402.074 197.643 401.807 197.756 401.528 197.756Z" fill="#3F3D56"/>
<path d="M209.37 57.7873C225.033 57.7873 237.731 44.8715 237.731 28.9389C237.731 13.0064 225.033 0.0905304 209.37 0.0905304C193.707 0.0905304 181.01 13.0064 181.01 28.9389C181.01 44.8715 193.707 57.7873 209.37 57.7873Z" fill="#2F2E41"/>
<path d="M182.424 214.131L181.673 201.055L230.9 191.882L232.009 211.183L182.424 214.131Z" fill="#FFB8B8"/>
<path d="M184.809 191.496L186.258 216.715L170.648 217.643L168.286 176.545C170.336 176.423 172.389 176.713 174.329 177.398C176.269 178.084 178.057 179.151 179.591 180.539C181.126 181.928 182.376 183.61 183.271 185.49C184.166 187.37 184.689 189.41 184.809 191.496Z" fill="#2F2E41"/>
<path d="M203.835 214.011L195.658 224.131L153.394 196.865L165.462 181.93L203.835 214.011Z" fill="#FFB8B8"/>
<path d="M186.975 228.982L202.744 209.466L214.824 219.566L189.126 251.37C187.539 250.044 186.225 248.413 185.259 246.57C184.292 244.727 183.692 242.708 183.492 240.63C183.292 238.551 183.497 236.452 184.095 234.454C184.692 232.455 185.671 230.596 186.975 228.982V228.982Z" fill="#2F2E41"/>
<path d="M180.304 166.952L174.716 193.748C174.587 194.365 174.595 195.003 174.737 195.617C174.88 196.231 175.154 196.805 175.54 197.298C175.927 197.791 176.416 198.191 176.972 198.47C177.528 198.748 178.138 198.898 178.758 198.908L233.691 199.809C234.31 199.819 234.924 199.69 235.488 199.431C236.053 199.171 236.554 198.788 236.956 198.309C237.358 197.83 237.65 197.266 237.813 196.658C237.976 196.05 238.004 195.413 237.896 194.793L233.091 167.096C232.92 166.107 232.411 165.21 231.654 164.565C230.898 163.919 229.942 163.565 228.954 163.565H184.414C183.451 163.565 182.517 163.901 181.769 164.518C181.021 165.134 180.504 165.994 180.304 166.952V166.952Z" fill="#2F2E41"/>
<path d="M189.413 176.386C189.413 176.386 135.844 142.196 125.34 160.36C120.088 169.441 122.714 178.256 126.653 184.801C130.308 190.759 135.555 195.537 141.781 198.574L185.212 220.193L200.967 203.098L190.464 193.482L189.413 176.386Z" fill="#2F2E41"/>
<path d="M216.723 171.044C216.723 171.044 286.048 150.743 272.393 189.208C258.738 227.672 207.27 212.714 207.27 212.714L202.018 196.687L219.874 183.866L216.723 171.044Z" fill="#2F2E41"/>
<path d="M209.726 61.7688C223.974 61.7688 235.525 50.0197 235.525 35.5264C235.525 21.033 223.974 9.28391 209.726 9.28391C195.478 9.28391 183.928 21.033 183.928 35.5264C183.928 50.0197 195.478 61.7688 209.726 61.7688Z" fill="#FFB8B8"/>
<path d="M191.74 180.517C192.263 179.039 193.098 177.696 194.186 176.582C195.275 175.468 196.59 174.61 198.04 174.069C199.489 173.527 201.038 173.316 202.577 173.45C204.115 173.583 205.606 174.058 206.945 174.841L235.291 149.813L237.856 169.482L210.544 190.234C209.102 192.434 206.916 194.02 204.402 194.69C201.887 195.361 199.217 195.069 196.9 193.872C194.582 192.674 192.776 190.653 191.825 188.192C190.874 185.73 190.844 183 191.74 180.517V180.517Z" fill="#FFB8B8"/>
<path d="M223.106 178.174C222.583 176.696 221.748 175.352 220.66 174.238C219.572 173.124 218.256 172.266 216.807 171.725C215.357 171.184 213.808 170.973 212.27 171.106C210.731 171.24 209.24 171.715 207.902 172.498L179.556 147.47L176.991 167.138L204.302 187.89C205.744 190.09 207.93 191.676 210.445 192.346C212.96 193.017 215.629 192.726 217.947 191.528C220.265 190.33 222.07 188.309 223.021 185.848C223.972 183.387 224.002 180.656 223.106 178.174V178.174Z" fill="#FFB8B8"/>
<path d="M211.078 175.285C200.358 175.12 189.693 173.69 179.296 171.025L178.989 170.94L164.593 103.579C163.298 97.6596 164.179 91.4628 167.068 86.1589C169.958 80.855 174.657 76.8111 180.278 74.7909C197.641 68.4541 216.565 68.0697 234.162 73.6964H234.163C240.067 75.6319 245.038 79.761 248.082 85.2596C251.126 90.7583 252.02 97.2222 250.585 103.362L234.506 170.883L234.279 170.993C227.597 174.213 219.241 175.285 211.078 175.285Z" fill="#CCCCCC"/>
<path d="M218.775 185.976C218.313 185.976 217.855 185.908 217.413 185.773C216.696 185.561 216.039 185.177 215.498 184.653C214.956 184.13 214.546 183.482 214.301 182.764L210.88 172.903C210.56 171.992 210.519 171.003 210.763 170.068C211.007 169.133 211.525 168.295 212.248 167.666L250.869 144.08L235.645 74.9923L236.032 74.8973C236.189 74.8577 251.788 71.2464 258.18 88.5849C262.656 100.728 279.221 127.132 278.052 144.974C277.83 148.543 276.432 151.932 274.083 154.593C271.735 157.255 268.573 159.033 265.109 159.642L221.636 184.978C220.817 185.624 219.811 185.975 218.775 185.976Z" fill="#CCCCCC"/>
<path d="M198.916 185.976C197.88 185.975 196.873 185.624 196.055 184.978L149.43 161.779C145.966 161.17 142.804 159.391 140.456 156.73C138.107 154.069 136.709 150.68 136.487 147.111C135.319 129.269 155.034 100.728 159.511 88.5849C165.902 71.2464 181.501 74.8567 181.659 74.8973L182.046 74.9923L163.67 146.217L205.443 167.665C206.165 168.295 206.683 169.133 206.927 170.068C207.172 171.003 207.131 171.992 206.811 172.903L203.389 182.764C203.144 183.482 202.734 184.13 202.193 184.653C201.652 185.177 200.995 185.561 200.278 185.773C199.836 185.907 199.377 185.976 198.916 185.976V185.976Z" fill="#CCCCCC"/>
<path d="M207.795 169.441C211.276 169.441 214.097 166.571 214.097 163.031C214.097 159.49 211.276 156.62 207.795 156.62C204.314 156.62 201.493 159.49 201.493 163.031C201.493 166.571 204.314 169.441 207.795 169.441Z" fill="white"/>
<path d="M183.669 34.4583C182.14 30.5132 184.649 25.8118 188.37 23.9008C192.092 21.9898 196.583 22.3533 200.563 23.6127C203.909 24.6712 207.044 26.3115 210.308 27.6071C213.525 29.0575 217.04 29.6942 220.552 29.4629C224.033 29.063 227.498 27.0773 228.923 23.8215C230.399 20.4466 229.395 16.3282 227.121 13.448C224.702 10.6636 221.57 8.61642 218.075 7.53429C210.4 4.78362 201.534 4.70321 194.408 8.70158C187.282 12.7 182.439 21.2135 183.912 29.3549" fill="#2F2E41"/>
<path d="M34.5905 185.274C35.8882 171.058 39.4724 157.155 45.1999 144.12C46.7962 140.493 48.5532 136.945 50.4709 133.478C50.5671 133.296 50.5903 133.084 50.5355 132.886C50.4808 132.687 50.3524 132.518 50.1775 132.414C50.0026 132.31 49.7949 132.279 49.5981 132.328C49.4013 132.377 49.2308 132.502 49.1227 132.676C42.1489 145.306 37.2633 159.016 34.6612 173.259C33.9374 177.236 33.3934 181.241 33.0291 185.274C32.9366 186.292 34.4986 186.285 34.5905 185.274V185.274Z" fill="white"/>
<path d="M35.602 185.542C36.4439 176.319 38.7691 167.299 42.4848 158.843C43.5204 156.49 44.6603 154.188 45.9044 151.939C45.9667 151.821 45.9818 151.683 45.9463 151.554C45.9107 151.426 45.8275 151.316 45.714 151.249C45.6006 151.181 45.4658 151.161 45.3381 151.193C45.2105 151.225 45.0999 151.306 45.0297 151.419C40.5055 159.612 37.336 168.507 35.6479 177.746C35.1783 180.327 34.8254 182.925 34.5891 185.542C34.5291 186.202 35.5424 186.197 35.6021 185.542H35.602Z" fill="white"/>
<path d="M34.3236 184.926C29.4108 177.127 25.7905 168.56 23.6072 159.568C23.0008 157.065 22.5079 154.537 22.1286 151.985C22.1067 151.853 22.0353 151.735 21.9295 151.656C21.8237 151.576 21.6917 151.542 21.5614 151.56C21.4311 151.577 21.3128 151.646 21.2313 151.751C21.1498 151.856 21.1115 151.989 21.1245 152.122C22.5117 161.413 25.3906 170.409 29.6463 178.75C30.8362 181.079 32.1291 183.348 33.5249 185.559C33.8766 186.117 34.6731 185.48 34.3236 184.926V184.926Z" fill="white"/>
<path d="M254.537 196.687H161.053C159.104 196.685 157.235 195.896 155.856 194.494C154.478 193.092 153.702 191.191 153.7 189.208V136.853C153.702 134.87 154.478 132.969 155.856 131.567C157.235 130.165 159.104 129.376 161.053 129.374H254.537C256.486 129.376 258.355 130.165 259.734 131.567C261.112 132.969 261.887 134.87 261.89 136.853V189.208C261.887 191.191 261.112 193.092 259.733 194.494C258.355 195.896 256.486 196.685 254.537 196.687V196.687Z" fill="#50D6EF"/>
<path d="M54.2525 136.025C59.7139 136.025 64.1412 131.521 64.1412 125.966C64.1412 120.41 59.7139 115.907 54.2525 115.907C48.7912 115.907 44.3638 120.41 44.3638 125.966C44.3638 131.521 48.7912 136.025 54.2525 136.025Z" fill="#50D6EF"/>
<path d="M48.3577 153.591C51.9008 153.591 54.773 150.669 54.773 147.065C54.773 143.461 51.9008 140.54 48.3577 140.54C44.8147 140.54 41.9425 143.461 41.9425 147.065C41.9425 150.669 44.8147 153.591 48.3577 153.591Z" fill="#50D6EF"/>
<path d="M21.1165 153.133C24.6595 153.133 27.5317 150.211 27.5317 146.607C27.5317 143.003 24.6595 140.082 21.1165 140.082C17.5734 140.082 14.7012 143.003 14.7012 146.607C14.7012 150.211 17.5734 153.133 21.1165 153.133Z" fill="#50D6EF"/>
<path d="M14.6292 190.699V177.878C14.6306 176.603 15.129 175.381 16.0151 174.479C16.9013 173.578 18.1027 173.071 19.3559 173.07H48.7666C50.0197 173.071 51.2211 173.578 52.1073 174.479C52.9934 175.381 53.4919 176.603 53.4933 177.878V190.699C53.4919 191.974 52.9934 193.196 52.1073 194.097C51.2211 194.999 50.0197 195.506 48.7666 195.507H19.3559C18.1027 195.506 16.9013 194.999 16.0151 194.097C15.129 193.196 14.6306 191.974 14.6292 190.699V190.699Z" fill="#F2F2F2"/>
<path d="M330.532 205.663C330.532 212.69 324.931 215.884 318.023 215.884C311.114 215.884 305.514 212.69 305.514 205.663C305.514 198.636 308.294 190.436 318.023 193.264C327.752 189.022 330.532 198.636 330.532 205.663Z" fill="#FF6584"/>
<path d="M317.414 196.556C316.927 196.556 316.457 196.377 316.091 196.051C315.726 195.724 315.49 195.274 315.427 194.783C315.013 191.277 312.73 184.41 311.768 181.621L311.768 181.62C311.67 181.343 311.641 181.046 311.681 180.754C311.721 180.463 311.83 180.186 311.999 179.946C312.16 179.733 312.364 179.556 312.598 179.428C312.831 179.3 313.088 179.224 313.352 179.205C313.617 179.185 313.882 179.223 314.131 179.316C314.38 179.408 314.607 179.553 314.797 179.741C314.966 179.922 315.097 180.136 315.182 180.371C315.267 180.605 315.303 180.855 315.288 181.105C315.1 184.685 317.665 190.469 319.211 193.6C319.357 193.895 319.431 194.221 319.425 194.552C319.419 194.882 319.335 195.206 319.179 195.496C319.023 195.785 318.8 196.032 318.529 196.215C318.259 196.397 317.949 196.51 317.626 196.544C317.555 196.552 317.484 196.556 317.414 196.556V196.556Z" fill="#3F3D56"/>
<path d="M326.67 188.658C331.012 185.043 327.605 177.645 322.17 179.065C321.439 179.243 320.765 179.609 320.213 180.127C316.879 183.331 316.363 191.527 316.363 191.527C316.363 191.527 322.249 192.338 326.67 188.658Z" fill="#3F3D56"/>
</svg>
